<svg width="235" height="55" viewBox="0 0 235 55" fill="none" xmlns="http://www.w3.org/2000/svg">
<rect width="194" height="55" fill="black"/>
<rect x="197" y="52" width="38" height="3" fill="black"/>
<path d="M202.492 11.3057C201.698 11.3057 200.966 11.1716 200.295 10.9034C199.625 10.6249 199.042 10.2433 198.547 9.75855C198.062 9.26347 197.681 8.68072 197.402 8.01031C197.134 7.33989 197 6.60759 197 5.8134C197 5.01921 197.134 4.28691 197.402 3.61649C197.681 2.94608 198.062 2.36333 198.547 1.86825C199.042 1.37318 199.625 0.991553 200.295 0.723386C200.966 0.444905 201.698 0.305664 202.492 0.305664C203.286 0.305664 204.019 0.444905 204.689 0.723386C205.36 0.991553 205.942 1.37318 206.437 1.86825C206.932 2.36333 207.314 2.94608 207.582 3.61649C207.861 4.28691 208 5.01921 208 5.8134C208 6.60759 207.861 7.33989 207.582 8.01031C207.314 8.68072 206.932 9.26347 206.437 9.75855C205.942 10.2433 205.36 10.6249 204.689 10.9034C204.019 11.1716 203.286 11.3057 202.492 11.3057ZM202.477 9.10876C201.837 9.10876 201.275 9.00046 200.79 8.78386C200.306 8.55695 199.929 8.20112 199.661 7.71635C199.403 7.22128 199.274 6.58696 199.274 5.8134C199.274 5.03984 199.403 4.41068 199.661 3.92592C199.929 3.44115 200.306 3.08532 200.79 2.85841C201.275 2.6315 201.837 2.51804 202.477 2.51804C203.034 2.51804 203.539 2.61087 203.993 2.79652C204.457 2.97186 204.823 3.2555 205.091 3.64744C205.37 4.02906 205.509 4.53445 205.509 5.16361H204.349C204.349 4.77167 204.261 4.45709 204.086 4.21987C203.921 3.98265 203.694 3.81246 203.405 3.70932C203.127 3.60618 202.812 3.55461 202.461 3.55461C201.842 3.55461 201.363 3.72479 201.023 4.06516C200.682 4.40552 200.512 4.93154 200.512 5.64322V5.96811C200.512 6.45288 200.589 6.85513 200.744 7.17486C200.899 7.48429 201.12 7.7112 201.409 7.85559C201.708 7.99999 202.059 8.07219 202.461 8.07219C202.822 8.07219 203.142 8.02578 203.421 7.93295C203.709 7.82981 203.936 7.66478 204.101 7.43787C204.277 7.20065 204.364 6.89122 204.364 6.5096H205.509C205.509 7.11814 205.375 7.61321 205.107 7.99483C204.839 8.37646 204.473 8.6601 204.008 8.84575C203.555 9.02109 203.044 9.10876 202.477 9.10876ZM202.492 10.4857C203.41 10.4857 204.22 10.2846 204.921 9.88232C205.633 9.48007 206.19 8.92826 206.592 8.2269C206.994 7.51523 207.195 6.71073 207.195 5.8134C207.195 4.90576 206.994 4.10126 206.592 3.3999C206.19 2.68822 205.633 2.13126 204.921 1.72901C204.22 1.32676 203.41 1.12564 202.492 1.12564C201.585 1.12564 200.775 1.32676 200.063 1.72901C199.352 2.13126 198.795 2.68822 198.392 3.3999C197.99 4.10126 197.789 4.90576 197.789 5.8134C197.789 6.71073 197.99 7.51523 198.392 8.2269C198.805 8.92826 199.362 9.48007 200.063 9.88232C200.775 10.2846 201.585 10.4857 202.492 10.4857Z" fill="black"/>
<path d="M45.2019 41.1304V21.801H33.8909V14.4798H66.0808V21.801H54.7698V41.1304H45.2019ZM64.8007 41.1304V14.4798H93.2718V21.1037H74.4073V24.5512H90.6765V30.8265H74.4073V34.5065H93.5817V41.1304H64.8007ZM109.09 41.5952C105.242 41.5952 102.053 41.0787 99.522 40.0458C96.9912 38.987 95.0931 37.4375 93.8278 35.3974C92.5882 33.3573 91.9684 30.8265 91.9684 27.8051C91.9684 23.3892 93.4275 19.9933 96.3456 17.6174C99.2638 15.2158 103.538 14.015 109.167 14.015C112.266 14.015 114.991 14.5056 117.341 15.487C119.691 16.4424 121.524 17.7853 122.841 19.5155C124.184 21.2199 124.856 23.1955 124.856 25.4422H115.559C115.559 24.5125 115.288 23.6861 114.745 22.9631C114.203 22.24 113.441 21.6718 112.46 21.2587C111.479 20.8455 110.329 20.6389 109.012 20.6389C107.36 20.6389 105.991 20.9359 104.906 21.5298C103.848 22.1238 103.06 22.9243 102.543 23.9315C102.053 24.9386 101.807 26.062 101.807 27.3015V28.2699C101.807 29.4578 102.053 30.5683 102.543 31.6012C103.06 32.6084 103.835 33.4219 104.868 34.0416C105.901 34.6614 107.218 34.9713 108.819 34.9713C110.291 34.9713 111.543 34.7776 112.576 34.3903C113.635 34.0029 114.435 33.4606 114.978 32.7633C115.546 32.0661 115.83 31.2526 115.83 30.3229H124.856C124.856 32.4922 124.223 34.429 122.957 36.1334C121.718 37.8378 119.923 39.1806 117.573 40.162C115.223 41.1175 112.395 41.5952 109.09 41.5952ZM124.447 41.1304V14.4798H134.015V23.9315H148.231V14.4798H157.799V41.1304H148.231V31.2526H134.015V41.1304H124.447Z" fill="white"/>
</svg>
