<svg width="90" height="21" viewBox="0 0 90 21" fill="none" xmlns="http://www.w3.org/2000/svg">
<path d="M8.77016 20V6.10699H0.640381V0.844904H23.7768V6.10699H15.6471V20H8.77016Z" fill="white"/>
<path d="M22.8568 20V0.844904H43.3204V5.60583H29.7615V8.08375H41.455V12.5941H29.7615V15.2391H43.5431V20H22.8568Z" fill="white"/>
<path d="M54.6896 20.3341C51.924 20.3341 49.6317 19.9629 47.8127 19.2204C45.9937 18.4594 44.6295 17.3458 43.72 15.8794C42.829 14.4131 42.3836 12.5941 42.3836 10.4224C42.3836 7.24849 43.4323 4.80771 45.5297 3.10008C47.6271 1.3739 50.699 0.510803 54.7453 0.510803C56.9726 0.510803 58.9308 0.863465 60.6199 1.56879C62.3089 2.25555 63.6268 3.22073 64.5734 4.46433C65.5386 5.68936 66.0212 7.10929 66.0212 8.7241H59.3392C59.3392 8.0559 59.1443 7.46195 58.7545 6.94224C58.3647 6.42253 57.8172 6.01418 57.1118 5.7172C56.4065 5.42022 55.5805 5.27173 54.6339 5.27173C53.446 5.27173 52.4623 5.48519 51.6827 5.91209C50.9217 6.339 50.3556 6.91439 49.9844 7.63828C49.6317 8.36216 49.4554 9.16957 49.4554 10.0605V10.7565C49.4554 11.6104 49.6317 12.4085 49.9844 13.1509C50.3556 13.8748 50.9124 14.4595 51.6549 14.905C52.3973 15.3504 53.3439 15.5732 54.4947 15.5732C55.5527 15.5732 56.4529 15.434 57.1954 15.1555C57.9564 14.8771 58.5318 14.4873 58.9215 13.9862C59.3299 13.485 59.5341 12.9004 59.5341 12.2322H66.0212C66.0212 13.7913 65.5664 15.1834 64.6569 16.4084C63.766 17.6334 62.476 18.5986 60.7869 19.304C59.0979 19.9907 57.0654 20.3341 54.6896 20.3341Z" fill="white"/>
<path d="M65.7275 20V0.844904H72.6044V7.63828H82.8223V0.844904H89.6992V20H82.8223V12.9004H72.6044V20H65.7275Z" fill="white"/>
</svg>
